<svg width="460" height="512" viewBox="0 0 460 512" fill="none" xmlns="http://www.w3.org/2000/svg">
<path fill-rule="evenodd" clip-rule="evenodd" d="M98.432 2.443C72.724 9.09 56.599 24.603 48.821 50.171C46.648 57.316 46.583 58.926 46.243 114.296L45.894 171.091L43.197 172.188C29.954 177.572 25.764 180.173 18.241 187.684C9.647 196.265 5.015 203.957 1.916 214.795C0.0930004 221.169 0 225.793 0 310.087C0 395.41 0.0740008 398.972 2.002 406.59C4.939 418.195 9.464 426.464 17 434C26.686 443.686 39.463 449.665 54.491 451.542L60 452.23V472.434C60 496.565 60.892 500.863 67.058 506.433C69.284 508.444 72.235 510.519 73.617 511.045C74.999 511.57 83.413 511.99 92.315 511.978C109.856 511.954 113.987 510.998 118.702 505.868C123.48 500.671 124 497.548 124 474.032V452H230H336V474.032C336 497.548 336.52 500.671 341.298 505.868C346.013 510.998 350.144 511.954 367.685 511.978C376.587 511.99 385.001 511.57 386.383 511.045C387.765 510.519 390.716 508.444 392.942 506.433C399.114 500.857 400 496.575 400 472.318V452H403.34C405.177 452 410.168 451.108 414.432 450.017C437.534 444.109 452.504 428.877 458.015 405.672C459.996 397.331 460.045 394.667 459.776 308.298C459.5 219.574 459.498 219.495 457.282 212.985C451.119 194.879 434.271 177.586 418.25 172.921L414 171.683L413.991 124.592C413.982 73.85 413.192 59.105 409.908 48.377C403.724 28.177 390.781 13.745 371.848 5.937C356.967 -0.199003 361.686 -0.00500234 228.792 0.0489977L107.5 0.0979977L98.432 2.443Z" fill="#008000"/>
<path fill-rule="evenodd" clip-rule="evenodd" d="M98.432 2.443C72.724 9.09 56.599 24.603 48.821 50.171C46.648 57.316 46.583 58.926 46.243 114.296L45.894 171.091L43.197 172.188C29.954 177.572 25.764 180.173 18.241 187.684C9.647 196.265 5.015 203.957 1.916 214.795C0.0930004 221.169 0 225.793 0 310.087C0 395.41 0.0740008 398.972 2.002 406.59C4.939 418.195 9.464 426.464 17 434C26.686 443.686 39.463 449.665 54.491 451.542L60 452.23V472.434C60 496.565 60.892 500.863 67.058 506.433C69.284 508.444 72.235 510.519 73.617 511.045C74.999 511.57 83.413 511.99 92.315 511.978C109.856 511.954 113.987 510.998 118.702 505.868C123.48 500.671 124 497.548 124 474.032V452H230H336V474.032C336 497.548 336.52 500.671 341.298 505.868C346.013 510.998 350.144 511.954 367.685 511.978C376.587 511.99 385.001 511.57 386.383 511.045C387.765 510.519 390.716 508.444 392.942 506.433C399.114 500.857 400 496.575 400 472.318V452H403.34C405.177 452 410.168 451.108 414.432 450.017C437.534 444.109 452.504 428.877 458.015 405.672C459.996 397.331 460.045 394.667 459.776 308.298C459.5 219.574 459.498 219.495 457.282 212.985C451.119 194.879 434.271 177.586 418.25 172.921L414 171.683L413.991 124.592C413.982 73.85 413.192 59.105 409.908 48.377C403.724 28.177 390.781 13.745 371.848 5.937C356.967 -0.199003 361.686 -0.00500234 228.792 0.0489977L107.5 0.0979977L98.432 2.443ZM353.335 22.483C371.858 26.408 384.249 37.863 389.729 56.131C391.098 60.697 391.399 69.511 391.738 115.025L392.137 168.551L384.88 170.254C363.256 175.329 346.387 190.123 339.192 210.324C337.056 216.322 336.565 219.757 336.205 231.25L335.773 245H230.03H124.287L123.719 232.25C122.82 212.06 117.847 199.796 105.541 187.418C96.923 178.751 87.934 173.596 76.523 170.779L67.906 168.652L68.255 114.076C68.634 54.785 68.436 56.966 74.505 44.99C79.951 34.244 92.134 25.569 106 22.567C115.826 20.439 343.324 20.362 353.335 22.483ZM73 192.217C88.615 196.927 99.957 210.404 102.065 226.758C102.543 230.466 102.959 260.275 102.99 293C103.04 347.836 103.18 352.667 104.772 354.633C105.723 355.806 107.483 357.269 108.684 357.883C110.257 358.687 144.228 359 230 359C315.772 359 349.743 358.687 351.316 357.883C352.517 357.269 354.277 355.806 355.228 354.633C356.82 352.667 356.96 347.836 357.01 293C357.041 260.275 357.457 230.466 357.935 226.758C361.257 200.996 386.433 184.849 411 192.726C424.663 197.106 435.842 210.938 438.048 226.194C439.332 235.072 439.26 380.425 437.966 391.026C435.444 411.693 428.097 422.325 412.168 428.355L406.5 430.5L232.727 430.767C79.274 431.002 58.179 430.853 52.323 429.495C34.103 425.27 24.247 413.604 21.938 393.528C20.743 383.135 20.755 234.47 21.952 226.194C25.546 201.34 49.775 185.213 73 192.217ZM335 302V337H229.5H124V302V267H229.5H335V302ZM103 471.5V491H92.5H82V471.5V452H92.5H103V471.5ZM378 471.5V491H367.5H357V471.5V452H367.5H378V471.5Z" fill="black"/>
<path fill-rule="evenodd" clip-rule="evenodd" d="M98.432 2.443C72.724 9.09 56.599 24.603 48.821 50.171C46.648 57.316 46.583 58.926 46.243 114.296L45.894 171.091L43.197 172.188C29.954 177.572 25.764 180.173 18.241 187.684C9.647 196.265 5.015 203.957 1.916 214.795C0.0930004 221.169 0 225.793 0 310.087C0 395.41 0.0740008 398.972 2.002 406.59C4.939 418.195 9.464 426.464 17 434C26.686 443.686 39.463 449.665 54.491 451.542L60 452.23V472.434C60 496.565 60.892 500.863 67.058 506.433C69.284 508.444 72.235 510.519 73.617 511.045C74.999 511.57 83.413 511.99 92.315 511.978C109.856 511.954 113.987 510.998 118.702 505.868C123.48 500.671 124 497.548 124 474.032V452H230H336V474.032C336 497.548 336.52 500.671 341.298 505.868C346.013 510.998 350.144 511.954 367.685 511.978C376.587 511.99 385.001 511.57 386.383 511.045C387.765 510.519 390.716 508.444 392.942 506.433C399.114 500.857 400 496.575 400 472.318V452H403.34C405.177 452 410.168 451.108 414.432 450.017C437.534 444.109 452.504 428.877 458.015 405.672C459.996 397.331 460.045 394.667 459.776 308.298C459.5 219.574 459.498 219.495 457.282 212.985C451.119 194.879 434.271 177.586 418.25 172.921L414 171.683L413.991 124.592C413.982 73.85 413.192 59.105 409.908 48.377C403.724 28.177 390.781 13.745 371.848 5.937C356.967 -0.199003 361.686 -0.00500234 228.792 0.0489977L107.5 0.0979977L98.432 2.443ZM353.335 22.483C371.858 26.408 384.249 37.863 389.729 56.131C391.098 60.697 391.399 69.511 391.738 115.025L392.137 168.551L384.88 170.254C363.256 175.329 346.387 190.123 339.192 210.324C337.056 216.322 336.565 219.757 336.205 231.25L335.773 245H230.03H124.287L123.719 232.25C122.82 212.06 117.847 199.796 105.541 187.418C96.923 178.751 87.934 173.596 76.523 170.779L67.906 168.652L68.255 114.076C68.634 54.785 68.436 56.966 74.505 44.99C79.951 34.244 92.134 25.569 106 22.567C115.826 20.439 343.324 20.362 353.335 22.483ZM73 192.217C88.615 196.927 99.957 210.404 102.065 226.758C102.543 230.466 102.959 260.275 102.99 293C103.04 347.836 103.18 352.667 104.772 354.633C105.723 355.806 107.483 357.269 108.684 357.883C110.257 358.687 144.228 359 230 359C315.772 359 349.743 358.687 351.316 357.883C352.517 357.269 354.277 355.806 355.228 354.633C356.82 352.667 356.96 347.836 357.01 293C357.041 260.275 357.457 230.466 357.935 226.758C361.257 200.996 386.433 184.849 411 192.726C424.663 197.106 435.842 210.938 438.048 226.194C439.332 235.072 439.26 380.425 437.966 391.026C435.444 411.693 428.097 422.325 412.168 428.355L406.5 430.5L232.727 430.767C79.274 431.002 58.179 430.853 52.323 429.495C34.103 425.27 24.247 413.604 21.938 393.528C20.743 383.135 20.755 234.47 21.952 226.194C25.546 201.34 49.775 185.213 73 192.217ZM335 302V337H229.5H124V302V267H229.5H335V302ZM103 471.5V491H92.5H82V471.5V452H92.5H103V471.5ZM378 471.5V491H367.5H357V471.5V452H367.5H378V471.5Z" fill="black"/>
<path fill-rule="evenodd" clip-rule="evenodd" d="M98.432 2.443C72.724 9.09 56.599 24.603 48.821 50.171C46.648 57.316 46.583 58.926 46.243 114.296L45.894 171.091L43.197 172.188C29.954 177.572 25.764 180.173 18.241 187.684C9.647 196.265 5.015 203.957 1.916 214.795C0.0930004 221.169 0 225.793 0 310.087C0 395.41 0.0740008 398.972 2.002 406.59C4.939 418.195 9.464 426.464 17 434C26.686 443.686 39.463 449.665 54.491 451.542L60 452.23V472.434C60 496.565 60.892 500.863 67.058 506.433C69.284 508.444 72.235 510.519 73.617 511.045C74.999 511.57 83.413 511.99 92.315 511.978C109.856 511.954 113.987 510.998 118.702 505.868C123.48 500.671 124 497.548 124 474.032V452H230H336V474.032C336 497.548 336.52 500.671 341.298 505.868C346.013 510.998 350.144 511.954 367.685 511.978C376.587 511.99 385.001 511.57 386.383 511.045C387.765 510.519 390.716 508.444 392.942 506.433C399.114 500.857 400 496.575 400 472.318V452H403.34C405.177 452 410.168 451.108 414.432 450.017C437.534 444.109 452.504 428.877 458.015 405.672C459.996 397.331 460.045 394.667 459.776 308.298C459.5 219.574 459.498 219.495 457.282 212.985C451.119 194.879 434.271 177.586 418.25 172.921L414 171.683L413.991 124.592C413.982 73.85 413.192 59.105 409.908 48.377C403.724 28.177 390.781 13.745 371.848 5.937C356.967 -0.199003 361.686 -0.00500234 228.792 0.0489977L107.5 0.0979977L98.432 2.443ZM353.335 22.483C371.858 26.408 384.249 37.863 389.729 56.131C391.098 60.697 391.399 69.511 391.738 115.025L392.137 168.551L384.88 170.254C363.256 175.329 346.387 190.123 339.192 210.324C337.056 216.322 336.565 219.757 336.205 231.25L335.773 245H230.03H124.287L123.719 232.25C122.82 212.06 117.847 199.796 105.541 187.418C96.923 178.751 87.934 173.596 76.523 170.779L67.906 168.652L68.255 114.076C68.634 54.785 68.436 56.966 74.505 44.99C79.951 34.244 92.134 25.569 106 22.567C115.826 20.439 343.324 20.362 353.335 22.483ZM73 192.217C88.615 196.927 99.957 210.404 102.065 226.758C102.543 230.466 102.959 260.275 102.99 293C103.04 347.836 103.18 352.667 104.772 354.633C105.723 355.806 107.483 357.269 108.684 357.883C110.257 358.687 144.228 359 230 359C315.772 359 349.743 358.687 351.316 357.883C352.517 357.269 354.277 355.806 355.228 354.633C356.82 352.667 356.96 347.836 357.01 293C357.041 260.275 357.457 230.466 357.935 226.758C361.257 200.996 386.433 184.849 411 192.726C424.663 197.106 435.842 210.938 438.048 226.194C439.332 235.072 439.26 380.425 437.966 391.026C435.444 411.693 428.097 422.325 412.168 428.355L406.5 430.5L232.727 430.767C79.274 431.002 58.179 430.853 52.323 429.495C34.103 425.27 24.247 413.604 21.938 393.528C20.743 383.135 20.755 234.47 21.952 226.194C25.546 201.34 49.775 185.213 73 192.217ZM335 302V337H229.5H124V302V267H229.5H335V302ZM103 471.5V491H92.5H82V471.5V452H92.5H103V471.5ZM378 471.5V491H367.5H357V471.5V452H367.5H378V471.5Z" fill="black"/>
<path fill-rule="evenodd" clip-rule="evenodd" d="M98.432 2.443C72.724 9.09 56.599 24.603 48.821 50.171C46.648 57.316 46.583 58.926 46.243 114.296L45.894 171.091L43.197 172.188C29.954 177.572 25.764 180.173 18.241 187.684C9.647 196.265 5.015 203.957 1.916 214.795C0.0930004 221.169 0 225.793 0 310.087C0 395.41 0.0740008 398.972 2.002 406.59C4.939 418.195 9.464 426.464 17 434C26.686 443.686 39.463 449.665 54.491 451.542L60 452.23V472.434C60 496.565 60.892 500.863 67.058 506.433C69.284 508.444 72.235 510.519 73.617 511.045C74.999 511.57 83.413 511.99 92.315 511.978C109.856 511.954 113.987 510.998 118.702 505.868C123.48 500.671 124 497.548 124 474.032V452H230H336V474.032C336 497.548 336.52 500.671 341.298 505.868C346.013 510.998 350.144 511.954 367.685 511.978C376.587 511.99 385.001 511.57 386.383 511.045C387.765 510.519 390.716 508.444 392.942 506.433C399.114 500.857 400 496.575 400 472.318V452H403.34C405.177 452 410.168 451.108 414.432 450.017C437.534 444.109 452.504 428.877 458.015 405.672C459.996 397.331 460.045 394.667 459.776 308.298C459.5 219.574 459.498 219.495 457.282 212.985C451.119 194.879 434.271 177.586 418.25 172.921L414 171.683L413.991 124.592C413.982 73.85 413.192 59.105 409.908 48.377C403.724 28.177 390.781 13.745 371.848 5.937C356.967 -0.199003 361.686 -0.00500234 228.792 0.0489977L107.5 0.0979977L98.432 2.443ZM353.335 22.483C371.858 26.408 384.249 37.863 389.729 56.131C391.098 60.697 391.399 69.511 391.738 115.025L392.137 168.551L384.88 170.254C363.256 175.329 346.387 190.123 339.192 210.324C337.056 216.322 336.565 219.757 336.205 231.25L335.773 245H230.03H124.287L123.719 232.25C122.82 212.06 117.847 199.796 105.541 187.418C96.923 178.751 87.934 173.596 76.523 170.779L67.906 168.652L68.255 114.076C68.634 54.785 68.436 56.966 74.505 44.99C79.951 34.244 92.134 25.569 106 22.567C115.826 20.439 343.324 20.362 353.335 22.483ZM73 192.217C88.615 196.927 99.957 210.404 102.065 226.758C102.543 230.466 102.959 260.275 102.99 293C103.04 347.836 103.18 352.667 104.772 354.633C105.723 355.806 107.483 357.269 108.684 357.883C110.257 358.687 144.228 359 230 359C315.772 359 349.743 358.687 351.316 357.883C352.517 357.269 354.277 355.806 355.228 354.633C356.82 352.667 356.96 347.836 357.01 293C357.041 260.275 357.457 230.466 357.935 226.758C361.257 200.996 386.433 184.849 411 192.726C424.663 197.106 435.842 210.938 438.048 226.194C439.332 235.072 439.26 380.425 437.966 391.026C435.444 411.693 428.097 422.325 412.168 428.355L406.5 430.5L232.727 430.767C79.274 431.002 58.179 430.853 52.323 429.495C34.103 425.27 24.247 413.604 21.938 393.528C20.743 383.135 20.755 234.47 21.952 226.194C25.546 201.34 49.775 185.213 73 192.217ZM335 302V337H229.5H124V302V267H229.5H335V302ZM103 471.5V491H92.5H82V471.5V452H92.5H103V471.5ZM378 471.5V491H367.5H357V471.5V452H367.5H378V471.5Z" fill="black"/>
<path fill-rule="evenodd" clip-rule="evenodd" d="M98.432 2.443C72.724 9.09 56.599 24.603 48.821 50.171C46.648 57.316 46.583 58.926 46.243 114.296L45.894 171.091L43.197 172.188C29.954 177.572 25.764 180.173 18.241 187.684C9.647 196.265 5.015 203.957 1.916 214.795C0.0930004 221.169 0 225.793 0 310.087C0 395.41 0.0740008 398.972 2.002 406.59C4.939 418.195 9.464 426.464 17 434C26.686 443.686 39.463 449.665 54.491 451.542L60 452.23V472.434C60 496.565 60.892 500.863 67.058 506.433C69.284 508.444 72.235 510.519 73.617 511.045C74.999 511.57 83.413 511.99 92.315 511.978C109.856 511.954 113.987 510.998 118.702 505.868C123.48 500.671 124 497.548 124 474.032V452H230H336V474.032C336 497.548 336.52 500.671 341.298 505.868C346.013 510.998 350.144 511.954 367.685 511.978C376.587 511.99 385.001 511.57 386.383 511.045C387.765 510.519 390.716 508.444 392.942 506.433C399.114 500.857 400 496.575 400 472.318V452H403.34C405.177 452 410.168 451.108 414.432 450.017C437.534 444.109 452.504 428.877 458.015 405.672C459.996 397.331 460.045 394.667 459.776 308.298C459.5 219.574 459.498 219.495 457.282 212.985C451.119 194.879 434.271 177.586 418.25 172.921L414 171.683L413.991 124.592C413.982 73.85 413.192 59.105 409.908 48.377C403.724 28.177 390.781 13.745 371.848 5.937C356.967 -0.199003 361.686 -0.00500234 228.792 0.0489977L107.5 0.0979977L98.432 2.443ZM353.335 22.483C371.858 26.408 384.249 37.863 389.729 56.131C391.098 60.697 391.399 69.511 391.738 115.025L392.137 168.551L384.88 170.254C363.256 175.329 346.387 190.123 339.192 210.324C337.056 216.322 336.565 219.757 336.205 231.25L335.773 245H230.03H124.287L123.719 232.25C122.82 212.06 117.847 199.796 105.541 187.418C96.923 178.751 87.934 173.596 76.523 170.779L67.906 168.652L68.255 114.076C68.634 54.785 68.436 56.966 74.505 44.99C79.951 34.244 92.134 25.569 106 22.567C115.826 20.439 343.324 20.362 353.335 22.483ZM73 192.217C88.615 196.927 99.957 210.404 102.065 226.758C102.543 230.466 102.959 260.275 102.99 293C103.04 347.836 103.18 352.667 104.772 354.633C105.723 355.806 107.483 357.269 108.684 357.883C110.257 358.687 144.228 359 230 359C315.772 359 349.743 358.687 351.316 357.883C352.517 357.269 354.277 355.806 355.228 354.633C356.82 352.667 356.96 347.836 357.01 293C357.041 260.275 357.457 230.466 357.935 226.758C361.257 200.996 386.433 184.849 411 192.726C424.663 197.106 435.842 210.938 438.048 226.194C439.332 235.072 439.26 380.425 437.966 391.026C435.444 411.693 428.097 422.325 412.168 428.355L406.5 430.5L232.727 430.767C79.274 431.002 58.179 430.853 52.323 429.495C34.103 425.27 24.247 413.604 21.938 393.528C20.743 383.135 20.755 234.47 21.952 226.194C25.546 201.34 49.775 185.213 73 192.217ZM335 302V337H229.5H124V302V267H229.5H335V302ZM103 471.5V491H92.5H82V471.5V452H92.5H103V471.5ZM378 471.5V491H367.5H357V471.5V452H367.5H378V471.5Z" fill="black"/>
<path fill-rule="evenodd" clip-rule="evenodd" d="M98.432 2.443C72.724 9.09 56.599 24.603 48.821 50.171C46.648 57.316 46.583 58.926 46.243 114.296L45.894 171.091L43.197 172.188C29.954 177.572 25.764 180.173 18.241 187.684C9.647 196.265 5.015 203.957 1.916 214.795C0.0930004 221.169 0 225.793 0 310.087C0 395.41 0.0740008 398.972 2.002 406.59C4.939 418.195 9.464 426.464 17 434C26.686 443.686 39.463 449.665 54.491 451.542L60 452.23V472.434C60 496.565 60.892 500.863 67.058 506.433C69.284 508.444 72.235 510.519 73.617 511.045C74.999 511.57 83.413 511.99 92.315 511.978C109.856 511.954 113.987 510.998 118.702 505.868C123.48 500.671 124 497.548 124 474.032V452H230H336V474.032C336 497.548 336.52 500.671 341.298 505.868C346.013 510.998 350.144 511.954 367.685 511.978C376.587 511.99 385.001 511.57 386.383 511.045C387.765 510.519 390.716 508.444 392.942 506.433C399.114 500.857 400 496.575 400 472.318V452H403.34C405.177 452 410.168 451.108 414.432 450.017C437.534 444.109 452.504 428.877 458.015 405.672C459.996 397.331 460.045 394.667 459.776 308.298C459.5 219.574 459.498 219.495 457.282 212.985C451.119 194.879 434.271 177.586 418.25 172.921L414 171.683L413.991 124.592C413.982 73.85 413.192 59.105 409.908 48.377C403.724 28.177 390.781 13.745 371.848 5.937C356.967 -0.199003 361.686 -0.00500234 228.792 0.0489977L107.5 0.0979977L98.432 2.443ZM353.335 22.483C371.858 26.408 384.249 37.863 389.729 56.131C391.098 60.697 391.399 69.511 391.738 115.025L392.137 168.551L384.88 170.254C363.256 175.329 346.387 190.123 339.192 210.324C337.056 216.322 336.565 219.757 336.205 231.25L335.773 245H230.03H124.287L123.719 232.25C122.82 212.06 117.847 199.796 105.541 187.418C96.923 178.751 87.934 173.596 76.523 170.779L67.906 168.652L68.255 114.076C68.634 54.785 68.436 56.966 74.505 44.99C79.951 34.244 92.134 25.569 106 22.567C115.826 20.439 343.324 20.362 353.335 22.483ZM73 192.217C88.615 196.927 99.957 210.404 102.065 226.758C102.543 230.466 102.959 260.275 102.99 293C103.04 347.836 103.18 352.667 104.772 354.633C105.723 355.806 107.483 357.269 108.684 357.883C110.257 358.687 144.228 359 230 359C315.772 359 349.743 358.687 351.316 357.883C352.517 357.269 354.277 355.806 355.228 354.633C356.82 352.667 356.96 347.836 357.01 293C357.041 260.275 357.457 230.466 357.935 226.758C361.257 200.996 386.433 184.849 411 192.726C424.663 197.106 435.842 210.938 438.048 226.194C439.332 235.072 439.26 380.425 437.966 391.026C435.444 411.693 428.097 422.325 412.168 428.355L406.5 430.5L232.727 430.767C79.274 431.002 58.179 430.853 52.323 429.495C34.103 425.27 24.247 413.604 21.938 393.528C20.743 383.135 20.755 234.47 21.952 226.194C25.546 201.34 49.775 185.213 73 192.217ZM335 302V337H229.5H124V302V267H229.5H335V302ZM103 471.5V491H92.5H82V471.5V452H92.5H103V471.5ZM378 471.5V491H367.5H357V471.5V452H367.5H378V471.5Z" fill="black"/>
<path fill-rule="evenodd" clip-rule="evenodd" d="M98.432 2.443C72.724 9.09 56.599 24.603 48.821 50.171C46.648 57.316 46.583 58.926 46.243 114.296L45.894 171.091L43.197 172.188C29.954 177.572 25.764 180.173 18.241 187.684C9.647 196.265 5.015 203.957 1.916 214.795C0.0930004 221.169 0 225.793 0 310.087C0 395.41 0.0740008 398.972 2.002 406.59C4.939 418.195 9.464 426.464 17 434C26.686 443.686 39.463 449.665 54.491 451.542L60 452.23V472.434C60 496.565 60.892 500.863 67.058 506.433C69.284 508.444 72.235 510.519 73.617 511.045C74.999 511.57 83.413 511.99 92.315 511.978C109.856 511.954 113.987 510.998 118.702 505.868C123.48 500.671 124 497.548 124 474.032V452H230H336V474.032C336 497.548 336.52 500.671 341.298 505.868C346.013 510.998 350.144 511.954 367.685 511.978C376.587 511.99 385.001 511.57 386.383 511.045C387.765 510.519 390.716 508.444 392.942 506.433C399.114 500.857 400 496.575 400 472.318V452H403.34C405.177 452 410.168 451.108 414.432 450.017C437.534 444.109 452.504 428.877 458.015 405.672C459.996 397.331 460.045 394.667 459.776 308.298C459.5 219.574 459.498 219.495 457.282 212.985C451.119 194.879 434.271 177.586 418.25 172.921L414 171.683L413.991 124.592C413.982 73.85 413.192 59.105 409.908 48.377C403.724 28.177 390.781 13.745 371.848 5.937C356.967 -0.199003 361.686 -0.00500234 228.792 0.0489977L107.5 0.0979977L98.432 2.443ZM353.335 22.483C371.858 26.408 384.249 37.863 389.729 56.131C391.098 60.697 391.399 69.511 391.738 115.025L392.137 168.551L384.88 170.254C363.256 175.329 346.387 190.123 339.192 210.324C337.056 216.322 336.565 219.757 336.205 231.25L335.773 245H230.03H124.287L123.719 232.25C122.82 212.06 117.847 199.796 105.541 187.418C96.923 178.751 87.934 173.596 76.523 170.779L67.906 168.652L68.255 114.076C68.634 54.785 68.436 56.966 74.505 44.99C79.951 34.244 92.134 25.569 106 22.567C115.826 20.439 343.324 20.362 353.335 22.483ZM73 192.217C88.615 196.927 99.957 210.404 102.065 226.758C102.543 230.466 102.959 260.275 102.99 293C103.04 347.836 103.18 352.667 104.772 354.633C105.723 355.806 107.483 357.269 108.684 357.883C110.257 358.687 144.228 359 230 359C315.772 359 349.743 358.687 351.316 357.883C352.517 357.269 354.277 355.806 355.228 354.633C356.82 352.667 356.96 347.836 357.01 293C357.041 260.275 357.457 230.466 357.935 226.758C361.257 200.996 386.433 184.849 411 192.726C424.663 197.106 435.842 210.938 438.048 226.194C439.332 235.072 439.26 380.425 437.966 391.026C435.444 411.693 428.097 422.325 412.168 428.355L406.5 430.5L232.727 430.767C79.274 431.002 58.179 430.853 52.323 429.495C34.103 425.27 24.247 413.604 21.938 393.528C20.743 383.135 20.755 234.47 21.952 226.194C25.546 201.34 49.775 185.213 73 192.217ZM335 302V337H229.5H124V302V267H229.5H335V302ZM103 471.5V491H92.5H82V471.5V452H92.5H103V471.5ZM378 471.5V491H367.5H357V471.5V452H367.5H378V471.5Z" fill="black"/>
</svg>
